# xmcd
#
# Track frame offsets:
#	150
#	20043
#	42277
#	69999
#	87085
#	113753
#	140999
#	171001
#	189797
#	209960
#	233654
#
# Disc length: 3520 seconds
#
# Revision: 0
# Processed by: cddbd v1.5.2PL0 Copyright (c) Steve Scherf et al.
# Submitted via: EasyCDDAExtractor 10.0.3.1
#
DISCID=980dbe0b
DTITLE=Dream Theater - Greatest Hit (...And 21 Other Pretty Cool Songs) - CD2
DYEAR=2008
DGENRE=Hard Rock
TTITLE0=Another Day (2007 Remix)
TTITLE1=To Live Forever
TTITLE2=Lifting Shadows Off A Dream
TTITLE3=The Silent Man
TTITLE4=Hollow Years
TTITLE5=Through Her Eyes
TTITLE6=The Spirit Carries On
TTITLE7=Solitary Shell
TTITLE8=I Walk Beside You
TTITLE9=The Answer Lies Within
TTITLE10=Disappear
EXTD=
EXTT0=
EXTT1=
EXTT2=
EXTT3=
EXTT4=
EXTT5=
EXTT6=
EXTT7=
EXTT8=
EXTT9=
EXTT10=
PLAYORDER=
